<svg width="40" height="40" viewBox="0 0 40 40" fill="none" xmlns="http://www.w3.org/2000/svg">
<path d="M17.5 0.937369C19.0303 1.64787 19.837 2.57729 20.625 4.06237C20.7031 4.96081 20.7031 4.96081 20.625 5.62487C21.3468 5.62487 22.0687 5.62487 22.8125 5.62487C22.8125 4.18112 22.8125 2.73737 22.8125 1.24987C23.225 1.14674 23.6375 1.04362 24.0625 0.937369C24.0625 2.48424 24.0625 4.03112 24.0625 5.62487C24.7843 5.62487 25.5062 5.62487 26.25 5.62487C26.25 4.18112 26.25 2.73737 26.25 1.24987C26.6625 1.14674 27.075 1.04362 27.5 0.937369C27.5 2.48424 27.5 4.03112 27.5 5.62487C28.2218 5.62487 28.9437 5.62487 29.6875 5.62487C29.6875 4.18112 29.6875 2.73737 29.6875 1.24987C30.1 1.14674 30.5125 1.04362 30.9375 0.937369C30.9375 2.48424 30.9375 4.03112 30.9375 5.62487C32.0718 5.62487 33.2062 5.62487 34.375 5.62487C34.375 6.75924 34.375 7.89362 34.375 9.06237C36.025 9.06237 37.675 9.06237 39.375 9.06237C39.375 9.47487 39.375 9.88737 39.375 10.3124C37.725 10.3124 36.075 10.3124 34.375 10.3124C34.375 11.0342 34.375 11.7561 34.375 12.4999C36.025 12.4999 37.675 12.4999 39.375 12.4999C39.375 12.9124 39.375 13.3249 39.375 13.7499C37.725 13.7499 36.075 13.7499 34.375 13.7499C34.375 14.4717 34.375 15.1936 34.375 15.9374C36.025 15.9374 37.675 15.9374 39.375 15.9374C39.375 16.3499 39.375 16.7624 39.375 17.1874C37.725 17.1874 36.075 17.1874 34.375 17.1874C34.375 17.9092 34.375 18.6311 34.375 19.3749C36.025 19.3749 37.675 19.3749 39.375 19.3749C39.375 19.7874 39.375 20.1999 39.375 20.6249C37.725 20.6249 36.075 20.6249 34.375 20.6249C34.375 21.3467 34.375 22.0686 34.375 22.8124C36.025 22.8124 37.675 22.8124 39.375 22.8124C39.375 23.2249 39.375 23.6374 39.375 24.0624C37.725 24.0624 36.075 24.0624 34.375 24.0624C34.375 24.7842 34.375 25.5061 34.375 26.2499C36.025 26.2499 37.675 26.2499 39.375 26.2499C39.375 26.6624 39.375 27.0749 39.375 27.4999C37.725 27.4999 36.075 27.4999 34.375 27.4999C34.375 28.2217 34.375 28.9436 34.375 29.6874C36.025 29.6874 37.675 29.6874 39.375 29.6874C39.375 30.0999 39.375 30.5124 39.375 30.9374C37.725 30.9374 36.075 30.9374 34.375 30.9374C34.375 32.0717 34.375 33.2061 34.375 34.3749C33.2406 34.3749 32.1062 34.3749 30.9375 34.3749C30.9375 35.9217 30.9375 37.4686 30.9375 39.0624C30.3187 38.9077 30.3187 38.9077 29.6875 38.7499C29.6875 37.3061 29.6875 35.8624 29.6875 34.3749C28.9656 34.3749 28.2437 34.3749 27.5 34.3749C27.5 35.9217 27.5 37.4686 27.5 39.0624C26.8812 38.9077 26.8812 38.9077 26.25 38.7499C26.25 37.3061 26.25 35.8624 26.25 34.3749C25.5281 34.3749 24.8062 34.3749 24.0625 34.3749C24.0625 35.9217 24.0625 37.4686 24.0625 39.0624C23.4437 38.9077 23.4437 38.9077 22.8125 38.7499C22.8125 37.3061 22.8125 35.8624 22.8125 34.3749C22.0906 34.3749 21.3687 34.3749 20.625 34.3749C20.596 34.8583 20.596 34.8583 20.5664 35.3514C20.2481 36.8693 19.8354 37.3519 18.75 38.4374C17.2238 39.402 15.4884 39.2831 13.75 39.0624C12.3988 38.512 11.7183 37.7513 10.957 36.5233C10.625 35.6249 10.625 35.6249 10.625 34.6874C10.3543 34.6616 10.0836 34.6358 9.80466 34.6092C8.13524 34.2383 7.17804 33.5262 6.15232 32.1678C5.46371 30.9692 5.29916 30.3012 5.44919 28.9647C5.46419 28.0362 5.46242 27.6568 4.81199 26.9762C4.37055 26.6695 3.92303 26.3714 3.47043 26.0814C1.9386 25.0185 1.01349 23.3637 0.624975 21.5624C0.341959 19.0196 0.841252 17.0834 2.32053 14.9962C3.05356 14.0927 3.58702 13.5153 4.64841 13.0077C4.86755 12.8401 5.08669 12.6725 5.31247 12.4999C5.37412 11.8045 5.32908 11.1384 5.2905 10.4418C5.33841 8.79699 6.17596 7.56397 7.32419 6.44518C8.44275 5.73585 9.29083 5.31237 10.625 5.31237C10.6508 5.03522 10.6765 4.75807 10.7031 4.47253C11.0344 3.00936 11.6844 2.23334 12.8967 1.3695C14.3765 0.620061 15.8816 0.741938 17.5 0.937369ZM12.5 3.43737C11.692 4.50238 11.7154 5.57555 11.875 6.87487C12.7713 8.02723 13.6111 8.62587 15 9.06237C15 9.26862 15 9.47487 15 9.68737C13.6711 9.6092 12.9763 9.5096 11.9336 8.65221C11.3698 7.95958 10.9595 7.38351 10.625 6.56237C8.8258 7.02262 7.83745 7.82133 6.77732 9.33581C6.30608 10.7924 6.52042 12.2873 6.87498 13.7499C6.66228 13.7628 6.44958 13.7757 6.23044 13.7889C4.6627 14.2559 3.57807 15.2193 2.70749 16.599C1.8099 18.4387 1.47753 20.0722 2.13987 22.0348C2.97886 23.9374 4.06684 25.2872 5.93748 26.2499C6.24685 26.2499 6.55622 26.2499 6.87498 26.2499C6.82341 26.4626 6.77185 26.6753 6.71873 26.8944C6.36815 28.954 6.48119 30.2323 7.655 31.9579C8.32984 32.7361 9.03852 33.0955 9.99998 33.4374C10.2062 33.4374 10.4125 33.4374 10.625 33.4374C10.9945 32.896 10.9945 32.896 11.3476 32.2264C11.8663 31.363 12.1043 30.9861 12.9883 30.4686C13.75 30.3124 13.75 30.3124 15 30.3124C15 30.5186 15 30.7249 15 30.9374C14.8268 31.0167 14.6535 31.0961 14.4751 31.1778C14.2487 31.2854 14.0223 31.393 13.789 31.5038C13.5643 31.6089 13.3395 31.7141 13.1079 31.8224C12.4045 32.1857 12.4045 32.1857 11.875 33.1249C11.7242 34.4569 11.791 35.1534 12.4219 36.3475C13.2317 37.3149 13.8092 37.7253 15.0573 37.9174C16.3201 37.9392 17.0057 37.9245 18.1054 37.246C19.4372 35.8335 19.4595 34.7897 19.436 32.9357C19.4347 32.5423 19.4347 32.5423 19.4333 32.141C19.4298 31.3035 19.422 30.4662 19.414 29.6288C19.4109 29.0609 19.4081 28.4931 19.4055 27.9253C19.3986 26.5334 19.3878 25.1417 19.375 23.7499C18.6531 23.7499 17.9312 23.7499 17.1875 23.7499C16.9477 24.6407 16.9477 24.6407 16.875 25.6249C17.1808 25.9439 17.4937 26.2563 17.8125 26.5624C17.9101 27.5194 17.9101 27.5194 17.8125 28.4374C17.1875 29.0624 17.1875 29.0624 16.5112 29.1234C16.2574 29.1162 16.0036 29.1089 15.7422 29.1014C15.4868 29.0958 15.2314 29.0902 14.9682 29.0843C14.7725 29.0771 14.5767 29.0698 14.375 29.0624C14.3035 28.1149 14.2626 27.1951 14.375 26.2499C14.7817 25.9245 15.1995 25.6127 15.625 25.3124C15.9307 24.38 16.0811 23.4708 16.25 22.4999C17.2812 22.4999 18.3125 22.4999 19.375 22.4999C19.375 21.8811 19.375 21.2624 19.375 20.6249C18.4697 20.591 17.5657 20.5663 16.6601 20.5467C16.4049 20.5363 16.1497 20.5258 15.8868 20.515C14.2014 20.4877 13.4625 20.689 12.1875 21.8749C10.5293 21.7792 10.5293 21.7792 9.99998 21.2499C9.88408 19.4245 9.88408 19.4245 9.99998 18.7499C10.9375 18.1249 10.9375 18.1249 11.875 18.1835C12.8125 18.4374 12.8125 18.4374 13.2572 18.9163C13.8938 19.5087 14.2147 19.4847 15.072 19.4664C15.3228 19.4634 15.5735 19.4604 15.8319 19.4573C16.0923 19.4494 16.3527 19.4416 16.6211 19.4335C16.8851 19.4292 17.1492 19.425 17.4212 19.4206C18.0726 19.4096 18.7238 19.3928 19.375 19.3749C19.375 18.7561 19.375 18.1374 19.375 17.4999C18.3437 17.4999 17.3125 17.4999 16.25 17.4999C16.1726 17.0551 16.0953 16.6104 16.0156 16.1522C15.8039 14.9883 15.8039 14.9883 14.9609 14.2186C14.375 13.7499 14.375 13.7499 14.2944 13.0724C14.2966 12.3568 14.3211 11.6508 14.375 10.9374C14.8306 10.9205 15.2864 10.9084 15.7422 10.8983C16.1228 10.8874 16.1228 10.8874 16.5112 10.8763C17.1875 10.9374 17.1875 10.9374 17.8125 11.5624C17.9101 12.4803 17.9101 12.4803 17.8125 13.4374C17.6513 13.5921 17.4902 13.7467 17.3242 13.9061C17.176 14.0608 17.0277 14.2155 16.875 14.3749C16.9477 15.359 16.9477 15.359 17.1875 16.2499C17.9093 16.2499 18.6312 16.2499 19.375 16.2499C19.4137 14.593 19.442 12.9365 19.4608 11.2793C19.4686 10.7161 19.4793 10.153 19.4928 9.58987C19.5119 8.77837 19.5207 7.96731 19.5276 7.15563C19.5356 6.90556 19.5437 6.65548 19.552 6.39783C19.5526 5.10521 19.451 4.30597 18.6233 3.2831C17.4313 2.13166 16.7038 2.08019 15.1013 2.09826C13.9841 2.23532 13.3334 2.7056 12.5 3.43737ZM20.625 6.87487C20.625 7.69987 20.625 8.52487 20.625 9.37487C24.0281 9.37487 27.4312 9.37487 30.9375 9.37487C30.9375 16.3874 30.9375 23.3999 30.9375 30.6249C27.5343 30.6249 24.1312 30.6249 20.625 30.6249C20.625 31.4499 20.625 32.2749 20.625 33.1249C24.75 33.1249 28.875 33.1249 33.125 33.1249C33.125 24.4624 33.125 15.7999 33.125 6.87487C29 6.87487 24.875 6.87487 20.625 6.87487ZM20.625 10.6249C20.625 11.7592 20.625 12.8936 20.625 14.0624C22.3781 14.1655 24.1312 14.2686 25.9375 14.3749C25.9375 18.0874 25.9375 21.7999 25.9375 25.6249C23.3078 25.7796 23.3078 25.7796 20.625 25.9374C20.625 27.0717 20.625 28.2061 20.625 29.3749C23.6156 29.3749 26.6062 29.3749 29.6875 29.3749C29.6875 23.1874 29.6875 16.9999 29.6875 10.6249C26.6968 10.6249 23.7062 10.6249 20.625 10.6249ZM15.3125 11.8749C15.4156 12.3905 15.5187 12.9061 15.625 13.4374C16.0375 13.3342 16.45 13.2311 16.875 13.1249C16.7719 12.7124 16.6687 12.2999 16.5625 11.8749C16.15 11.8749 15.7375 11.8749 15.3125 11.8749ZM20.625 15.3124C20.625 18.4061 20.625 21.4999 20.625 24.6874C22.0687 24.6874 23.5125 24.6874 25 24.6874C25 21.5936 25 18.4999 25 15.3124C23.5562 15.3124 22.1125 15.3124 20.625 15.3124ZM11.25 19.0624C11.1468 19.578 11.0437 20.0936 10.9375 20.6249C11.35 20.6249 11.7625 20.6249 12.1875 20.6249C12.1875 20.2124 12.1875 19.7999 12.1875 19.3749C11.8781 19.2717 11.5687 19.1686 11.25 19.0624ZM15.625 26.5624C15.5218 27.078 15.4187 27.5936 15.3125 28.1249C15.8281 28.0217 16.3437 27.9186 16.875 27.8124C16.875 27.503 16.875 27.1936 16.875 26.8749C16.4625 26.7717 16.05 26.6686 15.625 26.5624Z" fill="#363739"/>
</svg>
