<svg width="40" height="40" viewBox="0 0 40 40" fill="none" xmlns="http://www.w3.org/2000/svg">
<g clip-path="url(#clip0_34_614)">
<path d="M19.375 4.06209C21.1912 5.3759 22.5451 6.66927 23.4375 8.74959C23.4375 8.95584 23.4375 9.16209 23.4375 9.37459C23.7082 9.32303 23.9789 9.27146 24.2578 9.21834C25.3125 9.06209 25.3125 9.06209 26.2695 9.14021C27.2615 9.15661 27.2615 9.15661 27.9492 8.28084C28.75 7.49959 28.75 7.49959 29.8438 7.30428C30.9375 7.49959 30.9375 7.49959 31.6602 8.28084C32.4013 9.12924 32.4013 9.12924 33.2471 9.13289C33.7903 9.11224 34.3332 9.07716 34.8743 9.02547C35.842 9.07267 36.2059 9.30647 36.875 9.99959C37.0654 10.7064 37.0654 10.7064 37.1094 11.4644C37.1271 11.717 37.1448 11.9696 37.1631 12.2298C37.1711 12.422 37.1792 12.6141 37.1875 12.8121C37.4775 12.8959 37.7676 12.9797 38.0664 13.066C39.5251 13.6094 39.5251 13.6094 40 14.3746C40.1126 15.5685 40.0556 16.4076 39.6484 17.5387C39.3097 18.6517 39.5435 18.9598 40 19.9996C40.1953 21.0933 40.1953 21.0933 40 22.1871C39.4739 22.5643 39.4739 22.5643 38.8086 22.9097C37.9171 23.3767 37.5678 23.5997 37.1472 24.5296C36.9961 25.0875 36.8596 25.6497 36.7407 26.2154C36.6525 26.5417 36.6525 26.5417 36.5625 26.8746C35.7805 27.2656 35.321 27.1668 34.4531 27.109C33.2732 27.0903 32.6457 27.1543 31.7578 27.9488C31.4871 28.2131 31.2164 28.4773 30.9375 28.7496C29.9707 29.1363 29.7714 29.0901 28.75 28.7496C28.8745 28.9726 28.8745 28.9726 29.0015 29.2C30.1303 31.437 30.4686 33.7681 30.625 36.2496C30.5219 36.4558 30.4188 36.6621 30.3125 36.8746C20.3094 36.8746 10.3062 36.8746 0 36.8746C0 32.4201 1.01514 28.6345 4.05029 25.2547C7.17063 22.2752 10.9421 20.8154 15.2148 20.8785C15.4777 20.8787 15.7405 20.8789 16.0114 20.8791C17.1915 20.8875 18.2335 20.9268 19.375 21.2496C19.5812 20.5277 19.7875 19.8058 20 19.0621C19.8179 19.1523 19.6358 19.2426 19.4482 19.3355C17.077 20.4093 14.8014 20.8526 12.2693 20.0362C9.90272 18.9517 8.13718 17.4663 7.05078 15.0777C6.15656 12.5228 6.25729 10.0747 7.38159 7.61067C8.70995 5.34155 10.4222 4.09133 12.9187 3.31868C15.1518 2.7973 17.3036 3.07155 19.375 4.06209ZM9.20166 7.78157C7.92519 9.63418 7.81787 11.5643 8.125 13.7496C8.96155 15.905 10.2126 17.2819 12.1875 18.4371C14.2221 19.1153 16.7196 19.1115 18.6719 18.1832C19.7596 17.6012 19.7596 17.6012 20 16.5621C19.9613 16.214 19.9227 15.866 19.8828 15.5074C19.9408 14.9467 19.9408 14.9467 20 14.3746C20.4858 13.984 20.4858 13.984 21.0938 13.6324C21.9724 13.0934 21.9724 13.0934 22.3767 12.1785C22.4404 10.4051 21.9811 8.92977 20.9375 7.49959C19.5266 6.00325 18.1531 4.8514 16.0583 4.58211C12.9062 4.53649 11.2377 5.39987 9.20166 7.78157ZM29.375 9.06209C29.1043 9.3618 29.1043 9.3618 28.8281 9.66756C27.5922 10.8005 25.9847 10.6734 24.375 10.6246C24.3363 10.8059 24.2977 10.9871 24.2578 11.1739C23.7006 13.2843 22.7837 14.1939 20.9375 15.3121C21.0161 15.505 21.0946 15.698 21.1755 15.8968C21.8529 17.7744 21.9365 18.8883 21.1755 20.7442C21.097 20.911 21.0184 21.0778 20.9375 21.2496C21.1071 21.3298 21.2767 21.4099 21.4514 21.4925C22.8423 22.2368 23.5666 22.7825 24.0625 24.316C24.1758 24.7499 24.2832 25.1856 24.375 25.6246C24.5978 25.629 24.8205 25.6335 25.05 25.638C27.2074 25.7455 28.3637 26.0815 30 27.4996C30.2385 27.2482 30.477 26.9969 30.7227 26.7379C32.0621 25.5953 33.6204 25.6577 35.3125 25.6246C35.3774 25.4135 35.4422 25.2024 35.509 24.9849C36.3933 22.4246 36.3933 22.4246 37.7344 21.6793C38.0695 21.5375 38.4047 21.3957 38.75 21.2496C38.6469 20.9918 38.5438 20.734 38.4375 20.4683C37.9202 18.6578 37.8863 17.0394 38.75 15.3121C38.5804 15.2094 38.4108 15.1066 38.2361 15.0008C36.4261 13.7974 35.7642 12.7418 35.3125 10.6246C35.0351 10.6409 35.0351 10.6409 34.7522 10.6575C33.2014 10.7107 32.2055 10.6861 30.9375 9.68709C30.7313 9.48084 30.525 9.27459 30.3125 9.06209C30.0031 9.06209 29.6938 9.06209 29.375 9.06209ZM13.75 22.1871C13.4066 23.2174 13.4777 23.5636 13.7305 24.5894C13.7913 24.842 13.8521 25.0946 13.9148 25.3548C13.9635 25.547 14.0123 25.7391 14.0625 25.9371C14.7844 25.9371 15.5063 25.9371 16.25 25.9371C16.3628 25.3711 16.473 24.8046 16.582 24.2379C16.6437 23.9225 16.7053 23.607 16.7688 23.2821C16.8038 23.0238 16.8389 22.7656 16.875 22.4996C16.5599 22.1144 16.5599 22.1144 15.9167 22.1566C15.5306 22.162 15.5306 22.162 15.1367 22.1676C14.7494 22.1718 14.7494 22.1718 14.3542 22.1761C14.0551 22.1815 14.0551 22.1815 13.75 22.1871ZM9.0625 23.7496C9.79844 26.7385 10.828 29.6092 11.875 32.4996C11.9781 32.4996 12.0813 32.4996 12.1875 32.4996C12.7407 29.1121 12.8922 26.1969 12.1875 22.8121C10.8341 22.8121 10.228 23.1139 9.0625 23.7496ZM18.125 22.8121C17.3125 26.1024 17.5382 29.1845 18.125 32.4996C19.0579 31.1002 19.5066 29.55 20.0586 27.9683C20.1776 27.6376 20.2967 27.3069 20.4193 26.9661C20.5303 26.6491 20.6413 26.3321 20.7556 26.0054C20.9092 25.5701 20.9092 25.5701 21.0659 25.1259C21.33 24.3369 21.33 24.3369 20.9375 23.4371C19.8997 22.9042 19.3172 22.8121 18.125 22.8121ZM5.09888 26.4388C2.91005 28.7014 1.25 32.1243 1.25 35.3121C4.55 35.3121 7.85 35.3121 11.25 35.3121C10.8678 33.5924 10.5401 32.1297 9.94873 30.5159C9.82385 30.1725 9.69897 29.8291 9.57031 29.4753C9.44141 29.1262 9.3125 28.7772 9.17969 28.4176C9.04836 28.0576 8.91704 27.6977 8.78174 27.3269C8.46022 26.4464 8.13711 25.5665 7.8125 24.6871C6.66135 24.6871 5.91128 25.6942 5.09888 26.4388ZM22.5 24.9996C21.6108 27.0984 20.8382 29.2382 20.0781 31.3863C19.9788 31.664 19.8795 31.9416 19.7771 32.2277C19.6847 32.491 19.5923 32.7544 19.4971 33.0257C19.3715 33.3813 19.3715 33.3813 19.2435 33.744C19.0194 34.4154 19.0194 34.4154 19.0625 35.3121C22.3625 35.3121 25.6625 35.3121 29.0625 35.3121C28.581 32.3598 28.581 32.3598 27.5 29.8433C27.3389 29.5372 27.1777 29.231 27.0117 28.9156C26.6767 28.3257 26.3138 27.7515 25.9375 27.1871C25.2103 27.0702 24.4809 26.966 23.75 26.8746C23.1399 26.2645 22.8599 25.7708 22.5 24.9996ZM14.0625 27.4996C13.9565 28.3327 13.8526 29.166 13.75 29.9996C13.7053 30.3482 13.7053 30.3482 13.6597 30.7039C13.4712 32.2524 13.4091 33.7522 13.4375 35.3121C14.5719 35.3121 15.7063 35.3121 16.875 35.3121C16.8306 34.4201 16.7849 33.5282 16.7383 32.6363C16.726 32.3864 16.7137 32.1364 16.701 31.8789C16.6227 30.4016 16.4834 28.9606 16.25 27.4996C15.5281 27.4996 14.8062 27.4996 14.0625 27.4996Z" fill="#363739"/>
<path d="M33.191 13.0423C34.6743 14.0917 35.5373 15.405 35.9375 17.1878C36.0934 18.9018 35.8139 20.0473 35 21.5628C33.8458 22.8993 32.7035 23.9355 30.9217 24.2093C28.6661 24.2309 26.9804 24.123 25.3125 22.5003C24.0827 21.0511 23.6776 19.3799 23.75 17.5003C24.0536 15.5669 24.7648 14.3487 26.3282 13.1729C28.5176 11.7312 30.9252 11.7605 33.191 13.0423ZM26.6919 14.8343C25.5908 16.1328 25.196 16.9874 25.2271 18.7003C25.4009 20.0737 26.0133 21.0677 27.0337 21.9876C28.2874 22.839 29.3864 22.9796 30.8704 22.7335C32.2875 22.2561 33.3542 21.2886 34.115 20.0138C34.5372 18.9771 34.5453 17.9644 34.375 16.8753C33.5208 15.2302 32.466 14.0515 30.6836 13.4574C29.1573 13.4274 27.8324 13.7781 26.6919 14.8343Z" fill="#363739"/>
</g>
<defs>
<clipPath id="clip0_34_614">
<rect width="40" height="40" fill="white"/>
</clipPath>
</defs>
</svg>
