<svg width="40" height="40" viewBox="0 0 40 40" fill="none" xmlns="http://www.w3.org/2000/svg">
<g clip-path="url(#clip0_34_606)">
<path d="M27.0165 8.93044C29.8314 10.9997 32.0595 13.7009 32.8124 17.1873C33.0741 21.5155 32.8536 24.9887 29.9511 28.4385C27.7001 30.8755 24.9623 32.6823 21.5807 32.8867C17.2867 32.9905 14.1881 32.3773 10.9374 29.3748C8.54308 27.0623 7.17627 24.2003 7.09593 20.8768C7.05941 16.5017 8.0595 13.5934 11.1425 10.4014C15.3565 6.49543 22.1713 5.81347 27.0165 8.93044ZM11.2499 12.4998C8.95885 15.7216 8.45007 18.6322 8.74991 22.4998C9.42804 25.5656 11.3376 27.9658 13.9257 29.6677C16.8367 31.4549 20.1001 31.7806 23.4215 31.0459C26.7907 29.8136 29.0042 27.5309 30.6249 24.3748C31.6723 21.814 31.7145 18.4057 30.7616 15.8006C29.1851 12.538 26.8475 10.38 23.4801 9.01101C19.0313 7.82538 14.2991 8.97416 11.2499 12.4998Z" fill="#363739"/>
<path d="M21.25 11.2504C22.6973 12.0423 23.8469 12.7913 24.375 14.3754C24.618 16.4309 24.2843 17.6726 23.125 19.3754C23.3377 19.4269 23.5504 19.4785 23.7695 19.5316C25.4155 20.3721 26.5451 21.7977 27.3242 23.4574C27.5271 24.5172 27.5633 25.4865 27.5 26.5629C27.0084 27.0544 26.5197 26.9151 25.8374 26.9158C25.5506 26.9168 25.2638 26.9178 24.9684 26.9188C24.6565 26.9182 24.3447 26.9175 24.0234 26.9169C23.7055 26.9172 23.3876 26.9175 23.0601 26.9178C22.3865 26.918 21.713 26.9174 21.0394 26.9161C20.0044 26.9144 18.9695 26.9161 17.9345 26.9181C17.2819 26.9179 16.6292 26.9175 15.9765 26.9169C15.5088 26.9178 15.5088 26.9178 15.0316 26.9188C14.7448 26.9178 14.458 26.9168 14.1626 26.9158C13.9088 26.9156 13.6551 26.9153 13.3937 26.915C12.8125 26.8754 12.8125 26.8754 12.5 26.5629C12.3017 24.6591 12.7206 23.1809 13.75 21.5629C14.5157 20.7381 15.3153 20.0046 16.25 19.3754C16.4562 19.3754 16.6625 19.3754 16.875 19.3754C16.6687 19.0724 16.4625 18.7695 16.25 18.4574C15.4795 17.1056 15.3894 15.9008 15.625 14.3754C16.648 11.9525 18.7049 10.8996 21.25 11.2504ZM17.8125 13.7504C17.0858 14.8404 17.0829 15.2821 17.1875 16.5629C17.5647 17.6074 17.7876 17.7963 18.75 18.4379C20.0213 18.6028 20.0213 18.6028 21.25 18.4379C22.2794 17.5371 22.7402 16.9562 22.9882 15.6058C22.763 14.4295 22.4549 13.9262 21.5625 13.1254C19.9791 12.6647 19.1078 12.7141 17.8125 13.7504ZM15.9961 21.4652C15.0357 22.4804 14.0625 23.8664 14.0625 25.3129C17.9812 25.3129 21.9 25.3129 25.9375 25.3129C25.3192 23.149 24.9012 22.032 23.0273 20.8597C20.4977 19.5439 18.3436 20.0567 15.9961 21.4652Z" fill="#363739"/>
<path d="M5.31256 32.1875C6.10487 32.2159 6.88617 32.2616 7.67584 32.3242C8.00908 32.3487 8.00908 32.3487 8.34906 32.3737C8.8995 32.4143 9.44979 32.457 10.0001 32.5C10.1032 33.0156 10.2063 33.5312 10.3126 34.0625C9.79693 34.1656 9.28131 34.2687 8.75006 34.375C13.253 37.761 18.2859 38.7402 23.7916 37.9919C25.7091 37.5254 27.4311 36.6582 29.1623 35.7305C30.0356 35.2654 30.5557 35 31.5626 35C31.7172 35.6188 31.7172 35.6188 31.8751 36.25C27.1624 39.665 21.9328 40.6996 16.1867 39.9048C12.6618 39.2444 9.51271 37.7363 6.87506 35.3125C6.87506 36.0344 6.87506 36.7562 6.87506 37.5C6.46256 37.6031 6.05006 37.7063 5.62506 37.8125C5.00566 36.0317 4.84481 34.3846 5.00006 32.5C5.10318 32.3969 5.20631 32.2938 5.31256 32.1875Z" fill="#363739"/>
<path d="M36.2195 8.29311C38.2024 9.67414 39.3719 13.4966 39.8633 15.7968C40.5896 21.5227 39.9471 27.1268 36.4075 31.8771C36.0564 32.3048 35.6869 32.7172 35.3125 33.1247C36.0344 33.1247 36.7562 33.1247 37.5 33.1247C37.6031 33.5372 37.7063 33.9497 37.8125 34.3747C36.0317 34.994 34.3846 35.1549 32.5 34.9997C32.3969 34.8965 32.2938 34.7934 32.1875 34.6872C32.2159 33.8948 32.2616 33.1135 32.3242 32.3239C32.3487 31.9906 32.3487 31.9906 32.3737 31.6507C32.4143 31.1002 32.457 30.5499 32.5 29.9997C33.2734 29.845 33.2734 29.845 34.0625 29.6872C34.1656 30.2028 34.2687 30.7184 34.375 31.2497C37.761 26.7467 38.7402 21.7138 37.9919 16.2081C37.5254 14.2906 36.6582 12.5687 35.7305 10.8374C35.2654 9.96408 35 9.44406 35 8.43715C35.625 8.12465 35.625 8.12465 36.2195 8.29311Z" fill="#363739"/>
<path d="M31.25 3.12479C31.9137 3.61933 32.5146 4.12642 33.125 4.68729C33.125 3.96541 33.125 3.24354 33.125 2.49979C33.5375 2.39666 33.95 2.29354 34.375 2.18729C34.9944 3.96805 35.1552 5.6152 35 7.49979C34.8453 7.65447 34.8453 7.65447 34.6875 7.81229C33.8952 7.78389 33.1139 7.73819 32.3242 7.67557C31.991 7.6511 31.991 7.6511 31.651 7.62613C31.1006 7.58549 30.5503 7.54283 30 7.49979C29.8969 6.98416 29.7938 6.46854 29.6875 5.93729C30.2031 5.83416 30.7188 5.73104 31.25 5.62479C26.747 2.23883 21.7142 1.25957 16.2085 2.00784C14.2909 2.47436 12.569 3.34159 10.8377 4.26927C9.96443 4.73443 9.4444 4.99979 8.4375 4.99979C8.33437 4.58729 8.23125 4.17479 8.125 3.74979C14.9346 -1.18469 24.148 -1.55008 31.25 3.12479Z" fill="#363739"/>
<path d="M7.49993 4.99957C7.60305 5.10269 7.70618 5.20582 7.81243 5.31207C7.78403 6.10439 7.73833 6.88568 7.67571 7.67535C7.65939 7.89751 7.64308 8.11967 7.62627 8.34857C7.58563 8.89901 7.54297 9.44931 7.49993 9.99957C6.9843 10.1027 6.46868 10.2058 5.93743 10.3121C5.8343 9.79644 5.73118 9.28082 5.62493 8.74957C2.23897 13.2525 1.25971 18.2854 2.00798 23.7911C2.4745 25.7087 3.34173 27.4306 4.26941 29.1619C4.73457 30.0351 4.99993 30.5552 4.99993 31.5621C4.38118 31.7168 4.38118 31.7168 3.74993 31.8746C0.197904 26.9728 -0.600232 21.7249 0.134203 15.7894C0.85355 12.4901 2.46807 9.39899 4.68743 6.87457C3.96555 6.87457 3.24368 6.87457 2.49993 6.87457C2.3968 6.46207 2.29368 6.04957 2.18743 5.62457C3.96819 5.00517 5.61534 4.84433 7.49993 4.99957Z" fill="#363739"/>
</g>
<defs>
<clipPath id="clip0_34_606">
<rect width="40" height="40" fill="white"/>
</clipPath>
</defs>
</svg>
