<svg width="218" height="66" viewBox="0 0 218 66" fill="none" xmlns="http://www.w3.org/2000/svg">
<mask id="mask0_2090_1499" style="mask-type:luminance" maskUnits="userSpaceOnUse" x="0" y="0" width="218" height="66">
<path d="M218 0H0V65.8389H218V0Z" fill="white"/>
</mask>
<g mask="url(#mask0_2090_1499)">
<path d="M35.8581 33.9026V48.3963C33.9492 49.7679 31.926 50.7909 29.7771 51.4596C27.6282 52.1283 25.2736 52.4655 22.7131 52.4655C19.6784 52.4655 16.9351 52.0026 14.4833 51.071C12.0429 50.128 9.95686 48.8078 8.21944 47.1161C6.49346 45.4244 5.16753 43.4012 4.24167 41.0351C3.3101 38.6576 2.84717 36.0458 2.84717 33.1939C2.84717 30.3134 3.29295 27.6959 4.19595 25.3298C5.11038 22.9523 6.3963 20.9177 8.05942 19.226C9.73396 17.5343 11.7629 16.2255 14.1404 15.2939C16.5293 14.3681 19.204 13.8994 22.1645 13.8994C23.6562 13.8994 25.0449 14.0137 26.3251 14.2423C27.6053 14.4595 28.7827 14.7681 29.8686 15.1796C30.9659 15.5911 31.9775 16.094 32.909 16.6884C33.8349 17.2714 34.7036 17.9229 35.5152 18.6544L34.0521 20.9862C33.8235 21.3406 33.5263 21.5578 33.1605 21.6492C32.8062 21.7406 32.4118 21.6606 31.9717 21.3977C31.5603 21.1577 31.0802 20.8605 30.5315 20.5062C29.9829 20.1575 29.3199 19.8203 28.5426 19.5003C27.7654 19.1688 26.8395 18.8831 25.7765 18.6544C24.7077 18.4258 23.4504 18.3115 22.0045 18.3115C19.867 18.3115 17.941 18.6659 16.2207 19.3631C14.5119 20.049 13.0488 21.0434 11.8314 22.335C10.6255 23.6324 9.69396 25.1926 9.04243 27.0215C8.38518 28.8503 8.05942 30.9078 8.05942 33.1939C8.05942 35.5714 8.3909 37.6974 9.06529 39.572C9.75111 41.4352 10.717 43.0183 11.9686 44.3271C13.2317 45.6416 14.7576 46.636 16.5407 47.3218C18.3353 48.0076 20.3471 48.3505 22.576 48.3505C24.3248 48.3505 25.8794 48.1562 27.2396 47.7562C28.6112 47.3618 29.9429 46.8132 31.2402 46.1102V37.8117H25.365C25.0278 37.8117 24.7592 37.7146 24.5649 37.5146C24.3648 37.3202 24.2677 37.0802 24.2677 36.8059V33.9026H35.8581Z" fill="#363739"/>
<path d="M64.2868 47.7551V52.0529H42.8892V14.3098H47.9642V47.7551H64.2868Z" fill="#363739"/>
<path d="M102.243 33.1939C102.243 36.0286 101.792 38.629 100.894 40.9894C100.009 43.3555 98.7455 45.3901 97.0995 47.0932C95.465 48.7849 93.5104 50.1051 91.2243 51.0481C88.9382 51.9797 86.4064 52.4426 83.6345 52.4426C80.8569 52.4426 78.3308 51.9797 76.0448 51.0481C73.7587 50.1051 71.7984 48.7849 70.1695 47.0932C68.535 45.3901 67.2719 43.3555 66.3747 40.9894C65.4717 38.629 65.0259 36.0286 65.0259 33.1939C65.0259 30.3763 65.4717 27.7873 66.3747 25.4212C67.2719 23.0609 68.535 21.0262 70.1695 19.3174C71.7984 17.5971 73.7587 16.2655 76.0448 15.3168C78.3308 14.3738 80.8569 13.8994 83.6345 13.8994C86.4064 13.8994 88.9382 14.3738 91.2243 15.3168C93.5104 16.2655 95.465 17.5971 97.0995 19.3174C98.7455 21.0262 100.009 23.0609 100.894 25.4212C101.792 27.7873 102.243 30.3763 102.243 33.1939ZM97.0081 33.1939C97.0081 30.8792 96.688 28.7989 96.0479 26.9529C95.4192 25.1126 94.5277 23.5581 93.3732 22.2893C92.213 21.0091 90.8014 20.0261 89.144 19.3403C87.498 18.6544 85.6577 18.3115 83.6345 18.3115C81.6056 18.3115 79.7711 18.6544 78.1251 19.3403C76.4791 20.0261 75.0675 21.0091 73.8958 22.2893C72.7185 23.5581 71.8155 25.1126 71.1754 26.9529C70.5467 28.7989 70.2381 30.8792 70.2381 33.1939C70.2381 35.5142 70.5467 37.5946 71.1754 39.4349C71.8155 41.2637 72.7185 42.8182 73.8958 44.0985C75.0675 45.3672 76.4791 46.3388 78.1251 47.0246C79.7711 47.699 81.6056 48.0305 83.6345 48.0305C85.6577 48.0305 87.498 47.699 89.144 47.0246C90.8014 46.3388 92.213 45.3672 93.3732 44.0985C94.5277 42.8182 95.4192 41.2637 96.0479 39.4349C96.688 37.5946 97.0081 35.5142 97.0081 33.1939Z" fill="#363739"/>
<path d="M198.798 14.3091V52.0522H194.34V24.3221C194.34 23.9563 194.346 23.562 194.363 23.1333C194.391 22.7104 194.42 22.2818 194.454 21.8531L181.515 45.4454C181.104 46.2398 180.486 46.6342 179.663 46.6342H178.932C178.109 46.6342 177.492 46.2398 177.08 45.4454L163.867 21.7388C163.969 22.6704 164.027 23.5334 164.027 24.3221V52.0522H159.546V14.3091H163.318C163.775 14.3091 164.124 14.3548 164.37 14.4462C164.61 14.5377 164.85 14.7834 165.078 15.1778L178.109 38.4043C178.32 38.8329 178.526 39.273 178.726 39.7302C178.92 40.1874 179.115 40.6561 179.298 41.1247C179.463 40.6561 179.646 40.1874 179.846 39.7302C180.041 39.2616 180.258 38.8101 180.486 38.3814L193.288 15.1778C193.483 14.7834 193.711 14.5377 193.974 14.4462C194.231 14.3548 194.591 14.3091 195.049 14.3091H198.798Z" fill="#363739"/>
<path d="M212.761 52.0524H207.663V14.3093H212.761V52.0524Z" fill="#363739"/>
</g>
<path d="M110.664 51.4301V13.687H115.121V41.4171C115.121 41.7829 115.116 42.1772 115.099 42.6058C115.07 43.0288 115.041 43.4574 115.007 43.886L127.946 20.2938C128.358 19.4994 128.975 19.105 129.798 19.105H130.53C131.353 19.105 131.97 19.4994 132.381 20.2938L145.595 44.0004C145.492 43.0688 145.435 42.2058 145.435 41.4171V13.687H149.915V51.4301H146.143C145.686 51.4301 145.338 51.3844 145.092 51.2929C144.852 51.2015 144.612 50.9557 144.383 50.5614L131.353 27.3349C131.141 26.9062 130.935 26.4662 130.735 26.009C130.541 25.5517 130.347 25.0831 130.164 24.6144C129.998 25.0831 129.815 25.5517 129.615 26.009C129.421 26.4776 129.204 26.9291 128.975 27.3577L116.173 50.5614C115.979 50.9557 115.75 51.2015 115.487 51.2929C115.23 51.3844 114.87 51.4301 114.413 51.4301H110.664Z" fill="#363739"/>
<path d="M111.254 51.3783V13.6353H115.712V41.3653C115.712 41.7311 115.706 42.1255 115.689 42.5541C115.66 42.977 115.632 43.4057 115.597 43.8343L128.537 20.242C128.948 19.4476 129.565 19.0532 130.388 19.0532H131.12C131.943 19.0532 132.56 19.4476 132.972 20.242L146.185 43.9486C146.082 43.017 146.025 42.154 146.025 41.3653V13.6353H150.506V51.3783H146.734C146.277 51.3783 145.928 51.3326 145.682 51.2412C145.442 51.1497 145.202 50.904 144.973 50.5096L131.943 27.2831C131.731 26.8545 131.526 26.4144 131.326 25.9572C131.131 25.5 130.937 25.0313 130.754 24.5627C130.588 25.0313 130.405 25.5 130.205 25.9572C130.011 26.4258 129.794 26.8773 129.565 27.306L116.763 50.5096C116.569 50.904 116.34 51.1497 116.078 51.2412C115.82 51.3326 115.46 51.3783 115.003 51.3783H111.254Z" fill="#363739"/>
</svg>
