<svg width="218" height="41" viewBox="0 0 218 41" fill="none" xmlns="http://www.w3.org/2000/svg">
<path d="M34.8093 20.0632V35.9909C32.8065 37.456 30.6738 38.5313 28.4051 39.2048C26.1483 39.8783 23.732 40.2209 21.1502 40.2209C17.9482 40.2209 15.0415 39.7246 12.4302 38.7321C9.83073 37.7396 7.60936 36.3572 5.7661 34.573C3.92284 32.7947 2.49313 30.6738 1.48879 28.2161C0.496263 25.7466 0 23.0408 0 20.1105C0 17.1506 0.478539 14.4389 1.44152 11.9812C2.41633 9.5117 3.78696 7.38486 5.55342 5.60068C7.31397 3.8224 9.45853 2.44587 11.9812 1.46516C14.498 0.490355 17.3337 0 20.4886 0C22.0778 0 23.5666 0.129974 24.9549 0.378105C26.3374 0.632145 27.6253 0.98071 28.8069 1.41789C30.0003 1.86099 31.0873 2.40451 32.068 3.04847C33.0606 3.68062 33.9585 4.38365 34.762 5.15168L32.6824 8.4601C32.3516 8.97999 31.9144 9.30493 31.3827 9.42899C30.8628 9.54124 30.2957 9.40536 29.6812 9.02726C29.0786 8.6846 28.4819 8.34194 27.8852 8.0111C27.2826 7.66844 26.615 7.36714 25.8766 7.1131C25.1499 6.84724 24.3228 6.63456 23.3952 6.47505C22.4795 6.32144 21.422 6.23873 20.2286 6.23873C18.2908 6.23873 16.5303 6.56957 14.9588 7.23126C13.3991 7.88113 12.058 8.80866 10.9414 10.0198C9.83664 11.2368 8.9859 12.6901 8.3892 14.3916C7.7866 16.0931 7.4912 18.0013 7.4912 20.1105C7.4912 22.3673 7.81023 24.3819 8.4601 26.1601C9.10406 27.9266 10.008 29.4213 11.1777 30.6501C12.3593 31.8672 13.7654 32.7947 15.4078 33.4387C17.062 34.0885 18.9052 34.4075 20.9376 34.4075C22.385 34.4075 23.6847 34.2598 24.8368 33.9585C25.9829 33.6454 27.1054 33.2201 28.1924 32.6824V25.5693H23.2298C22.7572 25.5693 22.385 25.4394 22.1191 25.1676C21.8651 24.9018 21.741 24.5768 21.741 24.1987V20.0632H34.8093Z" fill="black"/>
<path d="M64.1157 33.7458V39.7955H41.0513V0.425293H48.3771V33.7458H64.1157Z" fill="black"/>
<path d="M104.683 20.1105C104.683 22.9935 104.198 25.6639 103.241 28.1216C102.296 30.5792 100.949 32.7179 99.2 34.5257C97.4631 36.3217 95.3717 37.7278 92.914 38.7321C90.4682 39.7246 87.7505 40.2209 84.7611 40.2209C81.7836 40.2209 79.0659 39.7246 76.6083 38.7321C74.1624 37.7278 72.071 36.3217 70.3223 34.5257C68.5735 32.7179 67.2088 30.5792 66.234 28.1216C65.271 25.6639 64.7925 22.9935 64.7925 20.1105C64.7925 17.2274 65.271 14.557 66.234 12.0994C67.2088 9.64168 68.5735 7.51484 70.3223 5.71884C72.071 3.92284 74.1624 2.52267 76.6083 1.51242C79.0659 0.508079 81.7836 0 84.7611 0C86.758 0 88.6367 0.236316 90.3855 0.708947C92.146 1.16976 93.7648 1.81963 95.2299 2.67037C96.7069 3.50929 98.0303 4.53135 99.2 5.74247C100.364 6.94177 101.356 8.28877 102.178 9.78347C102.993 11.2663 103.619 12.8792 104.045 14.6279C104.47 16.3649 104.683 18.1904 104.683 20.1105ZM97.1913 20.1105C97.1913 17.9541 96.896 16.0163 96.317 14.2971C95.7498 12.5838 94.9286 11.1246 93.8593 9.92525C92.7841 8.73186 91.4784 7.81614 89.9365 7.18399C88.4063 6.55776 86.6812 6.23873 84.7611 6.23873C82.8352 6.23873 81.1042 6.55776 79.5622 7.18399C78.0321 7.81614 76.7264 8.73186 75.6394 9.92525C74.5641 11.1246 73.737 12.5838 73.1581 14.2971C72.5732 16.0163 72.2837 17.9541 72.2837 20.1105C72.2837 22.2727 72.5732 24.2105 73.1581 25.9238C73.737 27.643 74.5641 29.1023 75.6394 30.2957C76.7264 31.4772 78.0321 32.3871 79.5622 33.0133C81.1042 33.6454 82.8352 33.9585 84.7611 33.9585C86.6812 33.9585 88.4063 33.6454 89.9365 33.0133C91.4784 32.3871 92.7841 31.4772 93.8593 30.2957C94.9286 29.1023 95.7498 27.643 96.317 25.9238C96.896 24.2105 97.1913 22.2727 97.1913 20.1105Z" fill="black"/>
<path d="M202.694 0.425293V39.7955H196.243V14.3679C196.243 13.3636 196.296 12.2647 196.408 11.0831L184.498 33.4149C183.942 34.4902 183.086 35.0219 181.922 35.0219H180.882C179.712 35.0219 178.856 34.4902 178.306 33.4149L166.254 10.9886C166.313 11.5912 166.36 12.182 166.396 12.761C166.425 13.3458 166.443 13.8835 166.443 14.3679V39.7955H159.992V0.425293H165.521C165.852 0.425293 166.136 0.443017 166.372 0.472556C166.609 0.49028 166.821 0.537543 167.01 0.614345C167.199 0.679333 167.371 0.791583 167.53 0.945187C167.684 1.1047 167.837 1.32329 167.979 1.60687L179.771 23.4661C180.067 24.0509 180.35 24.6476 180.622 25.2621C180.888 25.8765 181.148 26.5086 181.402 27.1526C181.65 26.4909 181.91 25.8469 182.182 25.2148C182.465 24.5886 182.755 23.986 183.056 23.4188L194.683 1.60687C194.825 1.32329 194.972 1.1047 195.132 0.945187C195.303 0.791583 195.486 0.679333 195.675 0.614345C195.864 0.537543 196.077 0.49028 196.313 0.472556C196.55 0.443017 196.833 0.425293 197.164 0.425293H202.694Z" fill="black"/>
<path d="M218 39.7955H210.627V0.425293H218V39.7955Z" fill="black"/>
<path d="M110.067 39.4542V0.0839844H116.519V25.5115C116.519 26.5159 116.466 27.6147 116.353 28.7963L128.264 6.46451C128.819 5.38927 129.676 4.85756 130.84 4.85756H131.879C133.049 4.85756 133.906 5.38927 134.455 6.46451L146.507 28.8909C146.448 28.2882 146.401 27.6975 146.365 27.1185C146.336 26.5336 146.318 25.996 146.318 25.5115V0.0839844H152.77V39.4542H147.24C146.909 39.4542 146.625 39.4364 146.389 39.4069C146.153 39.3892 145.94 39.3419 145.751 39.2651C145.562 39.2001 145.391 39.0879 145.231 38.9343C145.078 38.7748 144.924 38.5562 144.782 38.2726L132.99 16.4134C132.695 15.8285 132.411 15.2318 132.139 14.6174C131.873 14.003 131.613 13.3708 131.359 12.7269C131.111 13.3886 130.851 14.0325 130.58 14.6647C130.296 15.2909 130.007 15.8935 129.705 16.4607L118.078 38.2726C117.937 38.5562 117.789 38.7748 117.629 38.9343C117.458 39.0879 117.275 39.2001 117.086 39.2651C116.897 39.3419 116.684 39.3892 116.448 39.4069C116.212 39.4364 115.928 39.4542 115.597 39.4542H110.067Z" fill="black"/>
</svg>
